<svg width="64" height="64" viewBox="0 0 64 64" fill="none" xmlns="http://www.w3.org/2000/svg">
<path d="M61.2735 26.6726L34.6446 3.01802C33.9042 2.36059 32.9669 2 31.9984 2C31.0299 2 30.0926 2.36059 29.3522 3.01802L2.72807 26.6726C2.40678 26.9585 2.17662 27.3415 2.06871 27.7696C1.96081 28.1977 1.98036 28.6505 2.12474 29.0665C2.26911 29.4826 2.53134 29.8419 2.87595 30.0959C3.22057 30.3499 3.63094 30.4863 4.05158 30.4867H11.0957V60.292C11.0957 60.745 11.2665 61.1794 11.5707 61.4997C11.8749 61.82 12.2874 62 12.7176 62H26.1732V51.3948C26.1417 49.7802 26.6937 48.2133 27.7174 47.0109C28.7411 45.8085 30.1603 45.0604 31.6878 44.9179C32.4784 44.8734 33.2693 44.9989 34.0124 45.2869C34.7554 45.5748 35.435 46.0191 36.0096 46.5928C36.5842 47.1664 37.0418 47.8573 37.3545 48.6232C37.6672 49.3892 37.8285 50.2143 37.8284 51.0481V62H51.284C51.7142 62 52.1267 61.82 52.4309 61.4997C52.7351 61.1794 52.906 60.745 52.906 60.292V30.4867H59.9484C60.3691 30.4863 60.7794 30.3499 61.124 30.0959C61.4687 29.8419 61.7309 29.4826 61.8753 29.0665C62.0196 28.6505 62.0392 28.1977 61.9313 27.7696C61.8234 27.3415 61.5932 26.9585 61.2719 26.6726H61.2735Z" stroke="black" stroke-width="4" stroke-linecap="round" stroke-linejoin="round"/>
</svg>
