<svg width="60" height="60" viewBox="0 0 60 60" fill="none" xmlns="http://www.w3.org/2000/svg">
<path d="M26.7858 30C26.7858 30.8525 27.1244 31.67 27.7272 32.2728C28.33 32.8756 29.1475 33.2143 30 33.2143C30.8525 33.2143 31.67 32.8756 32.2728 32.2728C32.8756 31.67 33.2143 30.8525 33.2143 30C33.2143 29.1475 32.8756 28.33 32.2728 27.7272C31.67 27.1244 30.8525 26.7857 30 26.7857C29.1475 26.7857 28.33 27.1244 27.7272 27.7272C27.1244 28.33 26.7858 29.1475 26.7858 30ZM40.1784 30C40.1784 30.8525 40.5171 31.67 41.1199 32.2728C41.7227 32.8756 42.5402 33.2143 43.3927 33.2143C44.2452 33.2143 45.0627 32.8756 45.6655 32.2728C46.2683 31.67 46.6069 30.8525 46.6069 30C46.6069 29.1475 46.2683 28.33 45.6655 27.7272C45.0627 27.1244 44.2452 26.7857 43.3927 26.7857C42.5402 26.7857 41.7227 27.1244 41.1199 27.7272C40.5171 28.33 40.1784 29.1475 40.1784 30ZM13.3931 30C13.3931 30.8525 13.7317 31.67 14.3345 32.2728C14.9373 32.8756 15.7548 33.2143 16.6073 33.2143C17.4598 33.2143 18.2773 32.8756 18.8801 32.2728C19.4829 31.67 19.8216 30.8525 19.8216 30C19.8216 29.1475 19.4829 28.33 18.8801 27.7272C18.2773 27.1244 17.4598 26.7857 16.6073 26.7857C15.7548 26.7857 14.9373 27.1244 14.3345 27.7272C13.7317 28.33 13.3931 29.1475 13.3931 30ZM57.6693 18.375C56.1559 14.779 53.9863 11.5513 51.2207 8.77902C48.4745 6.02274 45.2143 3.83184 41.6249 2.33036C37.9419 0.783482 34.0312 0 30 0H29.8661C25.8081 0.0200893 21.8773 0.823661 18.181 2.40402C14.6222 3.9209 11.3926 6.11569 8.67215 8.86607C5.93334 11.6317 3.78381 14.846 2.29723 18.4286C0.757067 22.1384 -0.0197091 26.0826 0.000379902 30.1406C0.0231023 34.7911 1.1233 39.373 3.21463 43.5268V53.7054C3.21463 54.5223 3.53916 55.3058 4.11683 55.8835C4.6945 56.4612 5.47799 56.7857 6.29494 56.7857H16.4801C20.6338 58.8771 25.2157 59.9773 29.8661 60H30.0067C34.0178 60 37.9084 59.2232 41.5713 57.7031C45.1426 56.2195 48.3906 54.0542 51.1337 51.3281C53.8993 48.5893 56.0756 45.3884 57.5956 41.8192C59.176 38.1228 59.9795 34.192 59.9996 30.1339C60.0197 26.0558 59.2296 22.0982 57.6693 18.375ZM47.5511 47.7054C42.857 52.3527 36.6294 54.9107 30 54.9107H29.8862C25.8483 54.8906 21.8372 53.8862 18.2948 51.9978L17.7323 51.6964H8.30385V42.2679L8.00251 41.7054C6.11414 38.1629 5.10969 34.1518 5.0896 30.1138C5.06282 23.4375 7.61412 17.1696 12.2949 12.4487C16.9689 7.72768 23.2166 5.11607 29.8929 5.08929H30.0067C33.3549 5.08929 36.6026 5.73884 39.6628 7.02455C42.6494 8.27678 45.3279 10.0781 47.6315 12.3817C49.9283 14.6786 51.7363 17.3638 52.9886 20.3504C54.2876 23.4442 54.9372 26.7254 54.9238 30.1138C54.8836 36.7835 52.2654 43.0312 47.5511 47.7054Z" fill="black"/>
</svg>
