<svg width="67" height="67" viewBox="0 0 67 67" fill="none" xmlns="http://www.w3.org/2000/svg">
<circle cx="33.5" cy="33.5" r="33.5" fill="white"/>
<path d="M10.8438 43V20.6562H21.3125C25.5625 20.6562 27.6875 22.3906 27.6875 25.8594C27.6875 28.401 26.3021 30.2188 23.5312 31.3125C26.4896 31.8646 27.9688 33.5573 27.9688 36.3906C27.9688 40.7969 25.6406 43 20.9844 43H10.8438ZM20.8125 39.4062C22.6458 39.4062 23.5625 38.4688 23.5625 36.5938C23.5625 34.2708 22.1927 33.1094 19.4531 33.1094H18.2031V30.4375C21.6406 29.8646 23.3594 28.4271 23.3594 26.125C23.3594 24.875 22.5885 24.25 21.0469 24.25H14.9844V39.4062H20.8125ZM38.5312 33.1562V36.4375H30.7188V33.1562H38.5312ZM46.1875 39.2031C47.1354 39.5052 48.2344 39.6562 49.4844 39.6562C51.9844 39.6562 53.2344 37.8906 53.2344 34.3594C53.2344 31.474 52.1562 30.0312 50 30.0312C48.6042 30.0312 47.3333 30.3125 46.1875 30.875V39.2031ZM42.0469 20.6562H46.1875V27.8438C47.4271 27.0104 48.8073 26.5938 50.3281 26.5938C54.9948 26.5938 57.3281 29.2188 57.3281 34.4688C57.3281 40.1562 54.6562 43 49.3125 43C47.0625 43 44.6406 42.776 42.0469 42.3281V20.6562Z" fill="black"/>
</svg>
