<svg width="40" height="36" viewBox="0 0 40 36" fill="none" xmlns="http://www.w3.org/2000/svg">
<path d="M8.23529 36H5.88235L7.29412 34.2C8.23529 32.9625 8.82353 31.3875 9.17647 29.475C3.29412 26.8875 0 22.05 0 15.75C0 6.075 7.64706 0 20 0C32.3529 0 40 6.075 40 15.75C40 25.65 32.4706 31.5 20 31.5H19.1765C17.2941 33.6375 14 36 8.23529 36ZM20 2.25C8.94118 2.25 2.35294 7.3125 2.35294 15.75C2.35294 22.95 6.94118 26.325 10.8235 27.7875L11.6471 28.125L11.5294 29.025C11.2941 30.825 10.9412 32.4 10.2353 33.75C14.1176 33.3 16.3529 31.3875 17.6471 29.8125L18 29.3625H20C35.8824 29.3625 37.6471 19.9125 37.6471 15.8625C37.6471 7.3125 31.0588 2.25 20 2.25Z" fill="black"/>
<path d="M8.23529 36H5.88235L7.29412 34.2C8.23529 32.9625 8.82353 31.3875 9.17647 29.475C3.29412 26.8875 0 22.05 0 15.75C0 6.075 7.64706 0 20 0C32.3529 0 40 6.075 40 15.75C40 25.65 32.4706 31.5 20 31.5H19.1765C17.2941 33.6375 14 36 8.23529 36ZM20 2.25C8.94118 2.25 2.35294 7.3125 2.35294 15.75C2.35294 22.95 6.94118 26.325 10.8235 27.7875L11.6471 28.125L11.5294 29.025C11.2941 30.825 10.9412 32.4 10.2353 33.75C14.1176 33.3 16.3529 31.3875 17.6471 29.8125L18 29.3625H20C35.8824 29.3625 37.6471 19.9125 37.6471 15.8625C37.6471 7.3125 31.0588 2.25 20 2.25Z" stroke="black"/>
</svg>
